<svg xmlns="http://www.w3.org/2000/svg" width="452" height="82" viewBox="0 0 452 82">
  <g id="Group_287" data-name="Group 287" transform="translate(-146 -2709)">
    <g id="Group_280" data-name="Group 280" transform="translate(-737 -818)" opacity="0.15">
      <circle id="Ellipse_57" data-name="Ellipse 57" cx="2" cy="2" r="2" transform="translate(1121 3575) rotate(-90)" fill="#fff"/>
      <circle id="Ellipse_58" data-name="Ellipse 58" cx="2" cy="2" r="2" transform="translate(1107 3575) rotate(-90)" fill="#fff"/>
      <circle id="Ellipse_59" data-name="Ellipse 59" cx="2" cy="2" r="2" transform="translate(1093 3575) rotate(-90)" fill="#fff"/>
      <circle id="Ellipse_60" data-name="Ellipse 60" cx="2" cy="2" r="2" transform="translate(1121 3589) rotate(-90)" fill="#fff"/>
      <circle id="Ellipse_61" data-name="Ellipse 61" cx="2" cy="2" r="2" transform="translate(1107 3589) rotate(-90)" fill="#fff"/>
      <circle id="Ellipse_62" data-name="Ellipse 62" cx="2" cy="2" r="2" transform="translate(1121 3603) rotate(-90)" fill="#fff"/>
      <circle id="Ellipse_84" data-name="Ellipse 84" cx="2" cy="2" r="2" transform="translate(1107 3603) rotate(-90)" fill="#fff"/>
      <circle id="Ellipse_85" data-name="Ellipse 85" cx="2" cy="2" r="2" transform="translate(1093 3589) rotate(-90)" fill="#fff"/>
      <circle id="Ellipse_86" data-name="Ellipse 86" cx="2" cy="2" r="2" transform="translate(1093 3603) rotate(-90)" fill="#fff"/>
      <circle id="Ellipse_87" data-name="Ellipse 87" cx="2" cy="2" r="2" transform="translate(1163 3575) rotate(-90)" fill="#fff"/>
      <circle id="Ellipse_88" data-name="Ellipse 88" cx="2" cy="2" r="2" transform="translate(1149 3575) rotate(-90)" fill="#fff"/>
      <circle id="Ellipse_89" data-name="Ellipse 89" cx="2" cy="2" r="2" transform="translate(1135 3575) rotate(-90)" fill="#fff"/>
      <circle id="Ellipse_90" data-name="Ellipse 90" cx="2" cy="2" r="2" transform="translate(1163 3589) rotate(-90)" fill="#fff"/>
      <circle id="Ellipse_91" data-name="Ellipse 91" cx="2" cy="2" r="2" transform="translate(1149 3589) rotate(-90)" fill="#fff"/>
      <circle id="Ellipse_92" data-name="Ellipse 92" cx="2" cy="2" r="2" transform="translate(1163 3603) rotate(-90)" fill="#fff"/>
      <circle id="Ellipse_93" data-name="Ellipse 93" cx="2" cy="2" r="2" transform="translate(1149 3603) rotate(-90)" fill="#fff"/>
      <circle id="Ellipse_94" data-name="Ellipse 94" cx="2" cy="2" r="2" transform="translate(1135 3589) rotate(-90)" fill="#fff"/>
      <circle id="Ellipse_95" data-name="Ellipse 95" cx="2" cy="2" r="2" transform="translate(1135 3603) rotate(-90)" fill="#fff"/>
      <circle id="Ellipse_96" data-name="Ellipse 96" cx="2" cy="2" r="2" transform="translate(1205 3575) rotate(-90)" fill="#fff"/>
      <circle id="Ellipse_97" data-name="Ellipse 97" cx="2" cy="2" r="2" transform="translate(1191 3575) rotate(-90)" fill="#fff"/>
      <circle id="Ellipse_98" data-name="Ellipse 98" cx="2" cy="2" r="2" transform="translate(1177 3575) rotate(-90)" fill="#fff"/>
      <circle id="Ellipse_99" data-name="Ellipse 99" cx="2" cy="2" r="2" transform="translate(1205 3589) rotate(-90)" fill="#fff"/>
      <circle id="Ellipse_100" data-name="Ellipse 100" cx="2" cy="2" r="2" transform="translate(1191 3589) rotate(-90)" fill="#fff"/>
      <circle id="Ellipse_101" data-name="Ellipse 101" cx="2" cy="2" r="2" transform="translate(1205 3603) rotate(-90)" fill="#fff"/>
      <circle id="Ellipse_102" data-name="Ellipse 102" cx="2" cy="2" r="2" transform="translate(1191 3603) rotate(-90)" fill="#fff"/>
      <circle id="Ellipse_103" data-name="Ellipse 103" cx="2" cy="2" r="2" transform="translate(1177 3589) rotate(-90)" fill="#fff"/>
      <circle id="Ellipse_104" data-name="Ellipse 104" cx="2" cy="2" r="2" transform="translate(1177 3603) rotate(-90)" fill="#fff"/>
      <circle id="Ellipse_105" data-name="Ellipse 105" cx="2" cy="2" r="2" transform="translate(1247 3575) rotate(-90)" fill="#fff"/>
      <circle id="Ellipse_106" data-name="Ellipse 106" cx="2" cy="2" r="2" transform="translate(1233 3575) rotate(-90)" fill="#fff"/>
      <circle id="Ellipse_107" data-name="Ellipse 107" cx="2" cy="2" r="2" transform="translate(1219 3575) rotate(-90)" fill="#fff"/>
      <circle id="Ellipse_108" data-name="Ellipse 108" cx="2" cy="2" r="2" transform="translate(1247 3589) rotate(-90)" fill="#fff"/>
      <circle id="Ellipse_109" data-name="Ellipse 109" cx="2" cy="2" r="2" transform="translate(1233 3589) rotate(-90)" fill="#fff"/>
      <circle id="Ellipse_110" data-name="Ellipse 110" cx="2" cy="2" r="2" transform="translate(1247 3603) rotate(-90)" fill="#fff"/>
      <circle id="Ellipse_111" data-name="Ellipse 111" cx="2" cy="2" r="2" transform="translate(1233 3603) rotate(-90)" fill="#fff"/>
      <circle id="Ellipse_112" data-name="Ellipse 112" cx="2" cy="2" r="2" transform="translate(1219 3589) rotate(-90)" fill="#fff"/>
      <circle id="Ellipse_113" data-name="Ellipse 113" cx="2" cy="2" r="2" transform="translate(1219 3603) rotate(-90)" fill="#fff"/>
      <circle id="Ellipse_114" data-name="Ellipse 114" cx="2" cy="2" r="2" transform="translate(1121 3533) rotate(-90)" fill="#fff"/>
      <circle id="Ellipse_115" data-name="Ellipse 115" cx="2" cy="2" r="2" transform="translate(1107 3533) rotate(-90)" fill="#fff"/>
      <circle id="Ellipse_116" data-name="Ellipse 116" cx="2" cy="2" r="2" transform="translate(1093 3533) rotate(-90)" fill="#fff"/>
      <circle id="Ellipse_117" data-name="Ellipse 117" cx="2" cy="2" r="2" transform="translate(1121 3547) rotate(-90)" fill="#fff"/>
      <circle id="Ellipse_118" data-name="Ellipse 118" cx="2" cy="2" r="2" transform="translate(1107 3547) rotate(-90)" fill="#fff"/>
      <circle id="Ellipse_119" data-name="Ellipse 119" cx="2" cy="2" r="2" transform="translate(1121 3561) rotate(-90)" fill="#fff"/>
      <circle id="Ellipse_120" data-name="Ellipse 120" cx="2" cy="2" r="2" transform="translate(1107 3561) rotate(-90)" fill="#fff"/>
      <circle id="Ellipse_121" data-name="Ellipse 121" cx="2" cy="2" r="2" transform="translate(1093 3547) rotate(-90)" fill="#fff"/>
      <circle id="Ellipse_122" data-name="Ellipse 122" cx="2" cy="2" r="2" transform="translate(1093 3561) rotate(-90)" fill="#fff"/>
      <circle id="Ellipse_123" data-name="Ellipse 123" cx="2" cy="2" r="2" transform="translate(1163 3533) rotate(-90)" fill="#fff"/>
      <circle id="Ellipse_124" data-name="Ellipse 124" cx="2" cy="2" r="2" transform="translate(1149 3533) rotate(-90)" fill="#fff"/>
      <circle id="Ellipse_125" data-name="Ellipse 125" cx="2" cy="2" r="2" transform="translate(1135 3533) rotate(-90)" fill="#fff"/>
      <circle id="Ellipse_126" data-name="Ellipse 126" cx="2" cy="2" r="2" transform="translate(1163 3547) rotate(-90)" fill="#fff"/>
      <circle id="Ellipse_127" data-name="Ellipse 127" cx="2" cy="2" r="2" transform="translate(1149 3547) rotate(-90)" fill="#fff"/>
      <circle id="Ellipse_128" data-name="Ellipse 128" cx="2" cy="2" r="2" transform="translate(1163 3561) rotate(-90)" fill="#fff"/>
      <circle id="Ellipse_129" data-name="Ellipse 129" cx="2" cy="2" r="2" transform="translate(1149 3561) rotate(-90)" fill="#fff"/>
      <circle id="Ellipse_130" data-name="Ellipse 130" cx="2" cy="2" r="2" transform="translate(1135 3547) rotate(-90)" fill="#fff"/>
      <circle id="Ellipse_131" data-name="Ellipse 131" cx="2" cy="2" r="2" transform="translate(1135 3561) rotate(-90)" fill="#fff"/>
      <circle id="Ellipse_132" data-name="Ellipse 132" cx="2" cy="2" r="2" transform="translate(1205 3533) rotate(-90)" fill="#fff"/>
      <circle id="Ellipse_133" data-name="Ellipse 133" cx="2" cy="2" r="2" transform="translate(1191 3533) rotate(-90)" fill="#fff"/>
      <circle id="Ellipse_134" data-name="Ellipse 134" cx="2" cy="2" r="2" transform="translate(1177 3533) rotate(-90)" fill="#fff"/>
      <circle id="Ellipse_135" data-name="Ellipse 135" cx="2" cy="2" r="2" transform="translate(1205 3547) rotate(-90)" fill="#fff"/>
      <circle id="Ellipse_136" data-name="Ellipse 136" cx="2" cy="2" r="2" transform="translate(1191 3547) rotate(-90)" fill="#fff"/>
      <circle id="Ellipse_137" data-name="Ellipse 137" cx="2" cy="2" r="2" transform="translate(1205 3561) rotate(-90)" fill="#fff"/>
      <circle id="Ellipse_138" data-name="Ellipse 138" cx="2" cy="2" r="2" transform="translate(1191 3561) rotate(-90)" fill="#fff"/>
      <circle id="Ellipse_139" data-name="Ellipse 139" cx="2" cy="2" r="2" transform="translate(1177 3547) rotate(-90)" fill="#fff"/>
      <circle id="Ellipse_140" data-name="Ellipse 140" cx="2" cy="2" r="2" transform="translate(1177 3561) rotate(-90)" fill="#fff"/>
      <circle id="Ellipse_141" data-name="Ellipse 141" cx="2" cy="2" r="2" transform="translate(1247 3533) rotate(-90)" fill="#fff"/>
      <circle id="Ellipse_142" data-name="Ellipse 142" cx="2" cy="2" r="2" transform="translate(1233 3533) rotate(-90)" fill="#fff"/>
      <circle id="Ellipse_143" data-name="Ellipse 143" cx="2" cy="2" r="2" transform="translate(1219 3533) rotate(-90)" fill="#fff"/>
      <circle id="Ellipse_144" data-name="Ellipse 144" cx="2" cy="2" r="2" transform="translate(1247 3547) rotate(-90)" fill="#fff"/>
      <circle id="Ellipse_145" data-name="Ellipse 145" cx="2" cy="2" r="2" transform="translate(1233 3547) rotate(-90)" fill="#fff"/>
      <circle id="Ellipse_146" data-name="Ellipse 146" cx="2" cy="2" r="2" transform="translate(1247 3561) rotate(-90)" fill="#fff"/>
      <circle id="Ellipse_147" data-name="Ellipse 147" cx="2" cy="2" r="2" transform="translate(1233 3561) rotate(-90)" fill="#fff"/>
      <circle id="Ellipse_148" data-name="Ellipse 148" cx="2" cy="2" r="2" transform="translate(1219 3547) rotate(-90)" fill="#fff"/>
      <circle id="Ellipse_149" data-name="Ellipse 149" cx="2" cy="2" r="2" transform="translate(1219 3561) rotate(-90)" fill="#fff"/>
      <circle id="Ellipse_150" data-name="Ellipse 150" cx="2" cy="2" r="2" transform="translate(1289 3575) rotate(-90)" fill="#fff"/>
      <circle id="Ellipse_151" data-name="Ellipse 151" cx="2" cy="2" r="2" transform="translate(1275 3575) rotate(-90)" fill="#fff"/>
      <circle id="Ellipse_152" data-name="Ellipse 152" cx="2" cy="2" r="2" transform="translate(1261 3575) rotate(-90)" fill="#fff"/>
      <circle id="Ellipse_153" data-name="Ellipse 153" cx="2" cy="2" r="2" transform="translate(1289 3589) rotate(-90)" fill="#fff"/>
      <circle id="Ellipse_154" data-name="Ellipse 154" cx="2" cy="2" r="2" transform="translate(1275 3589) rotate(-90)" fill="#fff"/>
      <circle id="Ellipse_155" data-name="Ellipse 155" cx="2" cy="2" r="2" transform="translate(1289 3603) rotate(-90)" fill="#fff"/>
      <circle id="Ellipse_156" data-name="Ellipse 156" cx="2" cy="2" r="2" transform="translate(1275 3603) rotate(-90)" fill="#fff"/>
      <circle id="Ellipse_157" data-name="Ellipse 157" cx="2" cy="2" r="2" transform="translate(1261 3589) rotate(-90)" fill="#fff"/>
      <circle id="Ellipse_158" data-name="Ellipse 158" cx="2" cy="2" r="2" transform="translate(1261 3603) rotate(-90)" fill="#fff"/>
      <circle id="Ellipse_159" data-name="Ellipse 159" cx="2" cy="2" r="2" transform="translate(1331 3575) rotate(-90)" fill="#fff"/>
      <circle id="Ellipse_160" data-name="Ellipse 160" cx="2" cy="2" r="2" transform="translate(1317 3575) rotate(-90)" fill="#fff"/>
      <circle id="Ellipse_161" data-name="Ellipse 161" cx="2" cy="2" r="2" transform="translate(1303 3575) rotate(-90)" fill="#fff"/>
      <circle id="Ellipse_162" data-name="Ellipse 162" cx="2" cy="2" r="2" transform="translate(1331 3589) rotate(-90)" fill="#fff"/>
      <circle id="Ellipse_163" data-name="Ellipse 163" cx="2" cy="2" r="2" transform="translate(1317 3589) rotate(-90)" fill="#fff"/>
      <circle id="Ellipse_164" data-name="Ellipse 164" cx="2" cy="2" r="2" transform="translate(1331 3603) rotate(-90)" fill="#fff"/>
      <circle id="Ellipse_165" data-name="Ellipse 165" cx="2" cy="2" r="2" transform="translate(1317 3603) rotate(-90)" fill="#fff"/>
      <circle id="Ellipse_166" data-name="Ellipse 166" cx="2" cy="2" r="2" transform="translate(1303 3589) rotate(-90)" fill="#fff"/>
      <circle id="Ellipse_167" data-name="Ellipse 167" cx="2" cy="2" r="2" transform="translate(1303 3603) rotate(-90)" fill="#fff"/>
      <circle id="Ellipse_168" data-name="Ellipse 168" cx="2" cy="2" r="2" transform="translate(1289 3533) rotate(-90)" fill="#fff"/>
      <circle id="Ellipse_169" data-name="Ellipse 169" cx="2" cy="2" r="2" transform="translate(1275 3533) rotate(-90)" fill="#fff"/>
      <circle id="Ellipse_170" data-name="Ellipse 170" cx="2" cy="2" r="2" transform="translate(1261 3533) rotate(-90)" fill="#fff"/>
      <circle id="Ellipse_171" data-name="Ellipse 171" cx="2" cy="2" r="2" transform="translate(1289 3547) rotate(-90)" fill="#fff"/>
      <circle id="Ellipse_172" data-name="Ellipse 172" cx="2" cy="2" r="2" transform="translate(1275 3547) rotate(-90)" fill="#fff"/>
      <circle id="Ellipse_173" data-name="Ellipse 173" cx="2" cy="2" r="2" transform="translate(1289 3561) rotate(-90)" fill="#fff"/>
      <circle id="Ellipse_174" data-name="Ellipse 174" cx="2" cy="2" r="2" transform="translate(1275 3561) rotate(-90)" fill="#fff"/>
      <circle id="Ellipse_175" data-name="Ellipse 175" cx="2" cy="2" r="2" transform="translate(1261 3547) rotate(-90)" fill="#fff"/>
      <circle id="Ellipse_176" data-name="Ellipse 176" cx="2" cy="2" r="2" transform="translate(1261 3561) rotate(-90)" fill="#fff"/>
      <circle id="Ellipse_177" data-name="Ellipse 177" cx="2" cy="2" r="2" transform="translate(1331 3533) rotate(-90)" fill="#fff"/>
      <circle id="Ellipse_178" data-name="Ellipse 178" cx="2" cy="2" r="2" transform="translate(1317 3533) rotate(-90)" fill="#fff"/>
      <circle id="Ellipse_179" data-name="Ellipse 179" cx="2" cy="2" r="2" transform="translate(1303 3533) rotate(-90)" fill="#fff"/>
      <circle id="Ellipse_180" data-name="Ellipse 180" cx="2" cy="2" r="2" transform="translate(1331 3547) rotate(-90)" fill="#fff"/>
      <circle id="Ellipse_181" data-name="Ellipse 181" cx="2" cy="2" r="2" transform="translate(1317 3547) rotate(-90)" fill="#fff"/>
      <circle id="Ellipse_182" data-name="Ellipse 182" cx="2" cy="2" r="2" transform="translate(1331 3561) rotate(-90)" fill="#fff"/>
      <circle id="Ellipse_183" data-name="Ellipse 183" cx="2" cy="2" r="2" transform="translate(1317 3561) rotate(-90)" fill="#fff"/>
      <circle id="Ellipse_184" data-name="Ellipse 184" cx="2" cy="2" r="2" transform="translate(1303 3547) rotate(-90)" fill="#fff"/>
      <circle id="Ellipse_185" data-name="Ellipse 185" cx="2" cy="2" r="2" transform="translate(1303 3561) rotate(-90)" fill="#fff"/>
    </g>
    <g id="Group_286" data-name="Group 286" transform="translate(-14 -1)">
      <text id="DESIGN" transform="translate(160 2725)" fill="#fff" font-size="48" font-family="Orbitron-Regular, Orbitron"><tspan x="205.696" y="49">DESIGN</tspan></text>
      <text id="DESIGN-2" data-name="DESIGN" transform="translate(176 2711)" fill="none" stroke="#fff" stroke-width="1" font-size="48" font-family="Orbitron-Regular, Orbitron" opacity="0.18"><tspan x="205.696" y="49">DESIGN</tspan></text>
    </g>
  </g>
</svg>
