<svg xmlns="http://www.w3.org/2000/svg" width="74" height="74" viewBox="0 0 74 74">
  <g id="Group_274" data-name="Group 274" transform="translate(-4209 -4265)">
    <path id="Subtraction_7" data-name="Subtraction 7" d="M74,89.557H25.556a10.011,10.011,0,0,1-10-10V31.113L31.112,15.557H79.556a10.011,10.011,0,0,1,10,10V74L74,89.556Z" transform="translate(4193.444 4249.443)" fill="#fff"/>
    <path id="angular-brands" d="M28.25,49.043h5.5L31,42.431ZM31,32,16,37.371l2.3,19.9L31,64.339l12.7-7.067,2.3-19.9Zm9.4,24.673H36.89L35,51.952H27.015l-1.891,4.721H21.609L31,35.573Z" transform="translate(4214.804 4253.572)" fill="#000102"/>
  </g>
</svg>
