<svg xmlns="http://www.w3.org/2000/svg" width="74" height="74" viewBox="0 0 74 74">
  <g id="Group_271" data-name="Group 271" transform="translate(-1131 -3888)">
    <g id="Group_225" data-name="Group 225" transform="translate(-3322 -29)">
      <path id="Subtraction_7" data-name="Subtraction 7" d="M74,89.557H25.556a10.011,10.011,0,0,1-10-10V31.113L31.112,15.557H79.556a10.011,10.011,0,0,1,10,10V74L74,89.556Z" transform="translate(4437.444 3901.444)" fill="#fff"/>
    </g>
    <path id="css3-alt-brands" d="M0,32,2.727,62.922,15,67l12.273-4.078L30,32Zm24.461,6.25-.375,3.7L15.078,45.8l-.023.008h8.711l-1,11.453L15.094,59.5,7.375,57.219l-.5-5.773H10.7l.25,2.992,4.109,1.039,4.273-1.2.289-4.813L6.625,49.422v-.008l-.016.008L6.328,45.8l8.758-3.648.508-.211h-9.6l-.453-3.7Z" transform="translate(1152.842 3876)" fill="#000102"/>
  </g>
</svg>
