<svg xmlns="http://www.w3.org/2000/svg" width="74" height="74" viewBox="0 0 74 74">
  <g id="Group_270" data-name="Group 270" transform="translate(-1131 -3730)">
    <g id="Group_225" data-name="Group 225" transform="translate(-3322 -187)">
      <path id="Subtraction_7" data-name="Subtraction 7" d="M74,89.557H25.556a10.011,10.011,0,0,1-10-10V31.113L31.112,15.557H79.556a10.011,10.011,0,0,1,10,10V74L74,89.556Z" transform="translate(4437.444 3901.444)" fill="#fff"/>
    </g>
    <path id="html5-brands" d="M0,32,2.727,62.922,14.961,67l12.312-4.078L30,32Zm24.078,9.992H9.719l.32,3.859H23.758L22.7,57.445l-7.648,2.109v.023h-.086L7.25,57.445l-.469-5.922h3.727l.273,2.977,4.18,1.133,4.2-1.133.469-4.859H6.586l-1-11.375H24.422Z" transform="translate(1152.953 3718.358)" fill="#000102"/>
  </g>
</svg>
