<svg xmlns="http://www.w3.org/2000/svg" width="74" height="74" viewBox="0 0 74 74">
  <g id="Group_273" data-name="Group 273" transform="translate(-4209 -4161)">
    <path id="Subtraction_7" data-name="Subtraction 7" d="M74,89.557H25.556a10.011,10.011,0,0,1-10-10V31.113L31.112,15.557H79.556a10.011,10.011,0,0,1,10,10V74L74,89.556Z" transform="translate(4193.444 4145.443)" fill="#fff"/>
    <path id="react-brands" d="M24.5,40.52q-.475-.158-.949-.3c.053-.217.1-.434.146-.65.721-3.492.246-6.3-1.354-7.225-1.541-.885-4.055.035-6.6,2.25-.252.217-.5.445-.732.674-.158-.152-.322-.3-.486-.451-2.666-2.367-5.338-3.363-6.938-2.432-1.535.891-1.992,3.533-1.348,6.838.064.328.135.65.217.979-.375.105-.744.223-1.09.346C2.244,41.633,0,43.344,0,45.113c0,1.828,2.391,3.662,5.643,4.775.264.088.527.176.8.252-.088.352-.164.7-.234,1.055-.615,3.252-.135,5.83,1.4,6.715,1.582.914,4.242-.023,6.832-2.291.205-.182.41-.369.615-.568.258.252.527.492.8.727,2.508,2.156,4.986,3.029,6.516,2.145,1.582-.914,2.1-3.686,1.43-7.061q-.079-.387-.176-.791c.187-.053.369-.111.551-.17,3.381-1.119,5.83-2.93,5.83-4.787C30,43.338,27.691,41.615,24.5,40.52Zm-7.928-4.975c2.18-1.9,4.213-2.643,5.139-2.109.99.568,1.371,2.865.75,5.883-.041.2-.082.393-.135.586a30,30,0,0,0-3.943-.621,29.6,29.6,0,0,0-2.5-3.111C16.119,35.955,16.342,35.75,16.576,35.545ZM9.8,48.154c.3.51.6,1.02.926,1.518A26.532,26.532,0,0,1,8,49.232a27.372,27.372,0,0,1,.955-2.607C9.229,47.141,9.5,47.65,9.8,48.154ZM8.021,41.106c.844-.188,1.74-.34,2.672-.457-.311.486-.615.984-.9,1.488s-.568,1.008-.832,1.523c-.369-.873-.68-1.729-.937-2.555Zm1.605,4.037c.387-.809.809-1.6,1.254-2.379s.926-1.535,1.43-2.279c.879-.064,1.775-.1,2.689-.1s1.816.035,2.689.1q.747,1.107,1.424,2.268t1.271,2.367q-.589,1.213-1.266,2.391c-.445.779-.92,1.535-1.418,2.285-.873.064-1.781.094-2.7.094s-1.811-.029-2.672-.082q-.765-1.116-1.441-2.285c-.451-.779-.867-1.57-1.26-2.379Zm10.582,3c.3-.516.58-1.037.855-1.564a27.2,27.2,0,0,1,.99,2.6,25.738,25.738,0,0,1-2.754.469C19.617,49.15,19.916,48.647,20.209,48.143Zm.844-4.482c-.275-.516-.557-1.031-.85-1.535s-.586-.99-.9-1.477A26.964,26.964,0,0,1,22,41.117,25.931,25.931,0,0,1,21.053,43.66Zm-6.041-6.592a25.73,25.73,0,0,1,1.734,2.1c-1.16-.053-2.326-.053-3.486,0C13.834,38.41,14.426,37.707,15.012,37.068Zm-6.8-3.592c.984-.574,3.17.246,5.473,2.285.146.129.293.27.445.41a29.768,29.768,0,0,0-2.514,3.111,30.886,30.886,0,0,0-3.937.609c-.076-.3-.141-.6-.205-.908-.551-2.836-.187-4.975.738-5.508ZM6.779,48.922c-.246-.07-.486-.146-.727-.229a11.95,11.95,0,0,1-3.691-1.828,2.629,2.629,0,0,1-1.1-1.752c0-1.072,1.852-2.443,4.523-3.375.334-.117.674-.223,1.014-.322a31.156,31.156,0,0,0,1.436,3.727A32.029,32.029,0,0,0,6.779,48.922Zm6.832,5.742a10.724,10.724,0,0,1-3.3,2.068,2.593,2.593,0,0,1-2.068.076c-.932-.539-1.318-2.607-.791-5.391.064-.328.135-.656.217-.979a29.313,29.313,0,0,0,3.979.574,30.921,30.921,0,0,0,2.531,3.129c-.187.182-.375.357-.562.521Zm1.436-1.424c-.6-.645-1.2-1.359-1.775-2.127.563.023,1.143.035,1.729.035.6,0,1.2-.012,1.781-.041A25.268,25.268,0,0,1,15.047,53.24ZM22.705,55a2.6,2.6,0,0,1-.967,1.834c-.932.539-2.918-.164-5.062-2-.246-.211-.492-.439-.744-.674A28.987,28.987,0,0,0,18.4,51.014a28.886,28.886,0,0,0,4-.615c.059.24.111.48.158.715A10.681,10.681,0,0,1,22.705,55Zm1.066-6.3c-.164.053-.328.105-.5.152a29.766,29.766,0,0,0-1.494-3.738,29.616,29.616,0,0,0,1.436-3.686c.3.088.6.182.879.275,2.73.938,4.646,2.332,4.646,3.4C28.74,46.25,26.7,47.732,23.771,48.7ZM15,47.82a2.684,2.684,0,1,0-2.684-2.684A2.683,2.683,0,0,0,15,47.82Z" transform="translate(4230.54 4153.144)" fill="#000102"/>
  </g>
</svg>
