<svg xmlns="http://www.w3.org/2000/svg" width="74" height="74" viewBox="0 0 74 74">
  <g id="Group_276" data-name="Group 276" transform="translate(-4209 -4161)">
    <path id="Subtraction_7" data-name="Subtraction 7" d="M74,89.557H25.556a10.011,10.011,0,0,1-10-10V31.113L31.112,15.557H79.556a10.011,10.011,0,0,1,10,10V74L74,89.556Z" transform="translate(4193.444 4145.443)" fill="#fff"/>
    <path id="mobile-alt-solid" d="M22.722,0H4.01A4.011,4.011,0,0,0,0,4.01V38.76a4.011,4.011,0,0,0,4.01,4.01H22.722a4.011,4.011,0,0,0,4.01-4.01V4.01A4.011,4.011,0,0,0,22.722,0ZM13.366,40.1a2.673,2.673,0,1,1,2.673-2.673A2.67,2.67,0,0,1,13.366,40.1Zm9.356-9.022a1,1,0,0,1-1,1H5.012a1,1,0,0,1-1-1V5.012a1,1,0,0,1,1-1H21.719a1,1,0,0,1,1,1Z" transform="translate(4232.953 4176.615)" fill="#000102"/>
  </g>
</svg>
