<svg xmlns="http://www.w3.org/2000/svg" width="74" height="74" viewBox="0 0 74 74">
  <g id="Group_225" data-name="Group 225" transform="translate(-4453 -3917)">
    <path id="Subtraction_7" data-name="Subtraction 7" d="M74,89.557H25.556a10.011,10.011,0,0,1-10-10V31.113L31.112,15.557H79.556a10.011,10.011,0,0,1,10,10V74L74,89.556Z" transform="translate(4437.444 3901.444)" fill="#fff"/>
    <path id="pen-nib-solid" d="M8,8.13a3.75,3.75,0,0,0-2.538,2.423L0,26.951l.861.861,8.8-8.8a2.839,2.839,0,1,1,1.325,1.325l-8.8,8.8L3.047,30l16.4-5.466a3.75,3.75,0,0,0,2.423-2.538l2.507-8.871-7.5-7.5L8,8.13ZM29.176,4.344,25.654.821a2.814,2.814,0,0,0-3.979,0L18.361,4.135l7.5,7.5,3.313-3.313a2.814,2.814,0,0,0,0-3.979Z" transform="translate(4475.328 3939.002)" fill="#000102"/>
  </g>
</svg>
