<svg xmlns="http://www.w3.org/2000/svg" width="74" height="74" viewBox="0 0 74 74">
  <g id="Group_277" data-name="Group 277" transform="translate(-4209 -4265)">
    <path id="Subtraction_7" data-name="Subtraction 7" d="M74,89.557H25.556a10.011,10.011,0,0,1-10-10V31.113L31.112,15.557H79.556a10.011,10.011,0,0,1,10,10V74L74,89.556Z" transform="translate(4193.444 4249.443)" fill="#fff"/>
    <path id="crop-alt-solid" d="M28.594,20.625H26.25v-15A1.875,1.875,0,0,0,24.375,3.75H11.25V9.375h9.375V28.594A1.407,1.407,0,0,0,22.031,30h2.813a1.407,1.407,0,0,0,1.406-1.406V26.25h2.344A1.407,1.407,0,0,0,30,24.844V22.031A1.406,1.406,0,0,0,28.594,20.625ZM9.375,1.406A1.406,1.406,0,0,0,7.969,0H5.156A1.406,1.406,0,0,0,3.75,1.406V3.75H1.406A1.406,1.406,0,0,0,0,5.156V7.969A1.407,1.407,0,0,0,1.406,9.375H3.75v15A1.875,1.875,0,0,0,5.625,26.25H18.75V20.625H9.375Z" transform="translate(4230.686 4287)" fill="#000102"/>
  </g>
</svg>
