<svg xmlns="http://www.w3.org/2000/svg" width="31" height="31" viewBox="0 0 31 31">
  <g id="Group_210" data-name="Group 210" transform="translate(-733 -412)">
    <path id="graduation-cap-solid" d="M20.719,66.967l-9.284-2.852a2.659,2.659,0,0,0-1.557,0L.593,66.967a.784.784,0,0,0,0,1.517l1.619.5a2.623,2.623,0,0,0-.6,1.561,1.027,1.027,0,0,0-.085,1.765l-.85,3.824a.532.532,0,0,0,.52.648H3.069a.533.533,0,0,0,.52-.648l-.85-3.824a1.024,1.024,0,0,0-.06-1.748,1.57,1.57,0,0,1,.689-1.222l6.509,2a2.662,2.662,0,0,0,1.557,0l9.285-2.852A.784.784,0,0,0,20.719,66.967Zm-8.972,5.388a3.726,3.726,0,0,1-2.183,0L4.737,70.872l-.472,3.776c0,1.177,2.861,2.13,6.391,2.13s6.391-.954,6.391-2.13l-.472-3.777Z" transform="translate(738.527 356.221)" fill="#f8c700"/>
    <g id="Ellipse_74" data-name="Ellipse 74" transform="translate(733 412)" fill="none" stroke="#f8c700" stroke-width="2">
      <circle cx="15.5" cy="15.5" r="15.5" stroke="none"/>
      <circle cx="15.5" cy="15.5" r="14.5" fill="none"/>
    </g>
  </g>
</svg>
