<svg xmlns="http://www.w3.org/2000/svg" width="31" height="31" viewBox="0 0 31 31">
  <g id="Group_212" data-name="Group 212" transform="translate(-248 -412)">
    <g id="Ellipse_72" data-name="Ellipse 72" transform="translate(248 412)" fill="none" stroke="#f8c700" stroke-width="2">
      <circle cx="15.5" cy="15.5" r="15.5" stroke="none"/>
      <circle cx="15.5" cy="15.5" r="14.5" fill="none"/>
    </g>
    <path id="male-solid" d="M3.639,0A2.426,2.426,0,1,1,1.213,2.426,2.426,2.426,0,0,1,3.639,0M5.458,5.458H5.028a3.331,3.331,0,0,1-2.778,0H1.819A1.819,1.819,0,0,0,0,7.277v5.155a.91.91,0,0,0,.91.91h.606V18.5a.91.91,0,0,0,.91.91H4.852a.91.91,0,0,0,.91-.91V13.342h.606a.91.91,0,0,0,.91-.91V7.277A1.819,1.819,0,0,0,5.458,5.458Z" transform="translate(259.997 416.936)" fill="#f8c700"/>
    <g id="Ellipse_73" data-name="Ellipse 73" transform="translate(248 412)" fill="none" stroke="#f8c700" stroke-width="2">
      <circle cx="15.5" cy="15.5" r="15.5" stroke="none"/>
      <circle cx="15.5" cy="15.5" r="14.5" fill="none"/>
    </g>
  </g>
</svg>
